<?xml version="1.0" standalone="no"?>
<!DOCTYPE svg PUBLIC "-//W3C//DTD SVG 20010904//EN"
 "http://www.w3.org/TR/2001/REC-SVG-20010904/DTD/svg10.dtd">
<svg version="1.0" xmlns="http://www.w3.org/2000/svg"
 width="512.000000pt" height="512.000000pt" viewBox="0 0 512.000000 512.000000"
 preserveAspectRatio="xMidYMid meet">
<metadata>
Created by potrace 1.11, written by Peter Selinger 2001-2013
</metadata>
<g transform="translate(0.000000,512.000000) scale(0.100000,-0.100000)"
fill="#000000" stroke="none">
<path d="M2380 5057 c-3 -3 -36 -7 -75 -10 -117 -10 -175 -19 -169 -28 3 -5
-2 -6 -10 -3 -65 25 -721 -205 -689 -241 5 -4 2 -5 -4 -1 -11 6 -123 -52 -247
-129 -45 -28 -224 -165 -265 -204 -18 -17 -34 -31 -36 -31 -4 0 -175 -172
-175 -177 0 -2 -14 -18 -30 -36 -146 -152 -350 -487 -444 -727 -53 -137 -135
-437 -135 -495 0 -11 -5 -40 -11 -65 -17 -68 -25 -510 -11 -627 12 -101 58
-340 69 -358 4 -5 8 -19 9 -30 6 -34 60 -197 93 -275 18 -41 37 -87 43 -102 6
-16 15 -28 19 -28 4 0 8 -7 8 -16 0 -46 185 -343 299 -480 14 -17 40 -48 56
-69 38 -50 95 -101 107 -97 5 1 7 -2 4 -7 -8 -13 104 -122 117 -114 6 4 7 1 2
-7 -6 -10 -4 -12 8 -7 10 4 14 1 12 -6 -5 -14 90 -93 106 -89 6 1 8 -1 5 -6
-5 -9 54 -48 67 -44 5 1 6 -1 4 -5 -6 -9 137 -113 153 -113 6 0 10 -4 10 -10
0 -5 6 -10 14 -10 8 0 21 -6 28 -13 50 -45 422 -207 484 -210 18 -1 30 -5 28
-9 -4 -5 21 -18 46 -23 41 -9 91 -16 93 -13 2 1 10 -2 18 -8 13 -11 86 -27
244 -55 80 -14 552 -28 563 -17 4 4 40 9 80 10 39 2 72 6 72 9 0 3 24 9 53 13
28 3 106 20 172 37 66 17 127 32 135 33 8 1 24 7 36 14 11 6 32 13 46 16 14 2
39 11 54 19 16 8 40 17 54 18 14 2 27 7 30 10 12 15 92 49 100 44 6 -3 10 -2
10 2 0 5 17 16 38 26 20 10 64 33 97 52 33 19 72 40 88 46 15 6 27 14 27 18 0
8 53 35 57 29 1 -1 8 5 15 14 7 9 20 18 28 20 8 2 20 10 27 19 6 8 31 28 55
44 24 16 51 37 61 47 10 10 22 16 28 13 5 -4 9 0 9 8 0 8 17 27 38 43 44 33
91 75 140 128 21 21 60 63 89 93 28 30 51 57 51 61 0 3 8 9 17 12 9 3 16 10
15 15 -1 11 21 41 62 86 14 16 24 29 20 29 -3 0 7 13 23 30 16 16 25 30 20 30
-5 0 0 7 11 15 10 8 16 15 11 15 -6 0 37 71 70 115 5 6 16 26 25 45 9 19 28
55 42 80 42 78 132 290 128 303 -1 4 3 7 10 7 6 0 8 3 5 6 -3 4 -1 16 5 28 7
11 13 33 14 48 1 14 8 37 15 50 7 12 12 31 10 41 -1 9 3 17 9 17 6 0 8 5 5 10
-3 5 -3 15 1 22 4 7 9 21 10 32 1 12 5 35 8 51 6 26 19 96 31 160 12 69 18
144 24 333 3 117 3 216 0 220 -4 4 -9 39 -13 77 -3 39 -8 81 -11 95 -3 14 -9
50 -15 80 -20 118 -32 166 -73 300 -7 25 -16 52 -20 60 -3 8 -18 47 -32 85
-29 80 -29 80 -84 195 -59 123 -100 197 -148 268 -24 34 -43 66 -43 71 0 5 -3
11 -7 13 -9 3 -63 74 -63 81 0 6 -74 90 -147 168 -35 36 -63 71 -63 77 0 7 -4
12 -10 12 -5 0 -35 24 -67 53 -88 81 -132 119 -200 170 -34 26 -68 53 -75 61
-8 7 -24 17 -36 20 -12 4 -22 12 -22 17 0 5 -4 9 -10 9 -5 0 -34 16 -64 35
-101 64 -300 163 -416 205 -105 39 -142 50 -270 84 -206 54 -317 68 -570 73
-124 3 -227 3 -230 0z m1155 -1031 l830 -464 0 -1048 0 -1049 -825 -452 c-454
-249 -831 -453 -837 -453 -10 0 -13 400 -13 1965 0 1081 3 1965 8 1965 4 0
381 -209 837 -464z m-1115 -90 c0 -294 3 -541 6 -549 4 -11 -50 -43 -211 -127
-119 -61 -219 -109 -223 -106 -3 4 17 185 45 404 28 218 51 398 49 399 -2 2
-1078 -537 -1086 -544 -8 -7 -99 -1455 -100 -1588 l0 -131 583 -302 c321 -166
587 -302 590 -302 4 0 7 153 7 340 0 322 -1 340 -18 340 -10 0 -173 56 -363
124 l-344 124 -5 268 c-3 148 -4 274 -2 280 1 5 116 -48 255 -118 139 -71 368
-186 509 -256 l257 -127 0 -749 c1 -595 -2 -747 -11 -743 -7 2 -377 207 -823
455 l-810 450 0 1042 0 1043 840 453 c462 249 843 454 848 454 4 0 7 -240 7
-534z"/>
<path d="M2963 4063 c3 -21 27 -716 53 -1546 27 -829 52 -1507 55 -1507 10 0
941 488 950 497 4 5 28 429 53 943 25 514 48 946 50 960 8 45 77 2 -664 410
-223 122 -427 236 -454 252 l-48 29 5 -38z"/>
</g>
</svg>
